<svg xmlns="http://www.w3.org/2000/svg" viewBox="0 0 827.7 828.41"><defs><style>.cls-1{fill:#ceeaff;}.cls-2{fill:#8bcbfb;}.cls-3{fill:#fff;}.cls-4{fill:#449adb;}</style></defs><g id="Camada_2" data-name="Camada 2"><g id="Illustration"><path class="cls-1" d="M200.41,209.22C287,122,262.2,67.35,321.45,27c91.16-62.13,261.29-8.68,361.66,76.78C806,208.42,869.47,399.54,797.22,572.44c-77,184.13-279.4,279.71-460.06,250.91-161.32-25.73-319.9-153-335.79-305.6-1.73-16.54-9.33-106,44-183.06C89.44,271,131.78,278.35,200.41,209.22Z"/><path d="M243.12,71.78,807.7,70.12A19.4,19.4,0,0,1,827,91.3L787.44,539.21a19.38,19.38,0,0,1-19.26,17.73l-695.44-.11c-11.36,0-20.38-10.81-19.38-22.18L92.89,89.5c.89-10,8.92-18.81,18.93-18.81Z"/><path class="cls-2" d="M216.2,71.78H780.68A19.4,19.4,0,0,1,799.94,93L760.61,537.68a19.38,19.38,0,0,1-19.26,17.72H45.89a19.4,19.4,0,0,1-19.26-21.17L66,89.5A19.37,19.37,0,0,1,85.22,71.78Z"/><path d="M741.35,556.9H45.89a20.82,20.82,0,0,1-15.33-6.76,21,21,0,0,1-5.42-16L64.47,89.37A20.78,20.78,0,0,1,85.22,70.28H780.68A20.82,20.82,0,0,1,796,77a21,21,0,0,1,5.43,16L762.1,537.81A20.77,20.77,0,0,1,741.35,556.9ZM85.22,73.28A17.79,17.79,0,0,0,67.46,89.64L28.12,534.36a18.09,18.09,0,0,0,4.65,13.76,17.61,17.61,0,0,0,13.12,5.78H741.35a17.78,17.78,0,0,0,17.76-16.36L798.45,92.82a18.06,18.06,0,0,0-4.65-13.75,17.57,17.57,0,0,0-13.12-5.79Z"/><path class="cls-3" d="M708,526.27H78.92a18.72,18.72,0,0,1-18.58-20.43l1.68-17a18.7,18.7,0,0,1,18.59-17.11H709.7a18.72,18.72,0,0,1,18.58,20.43l-1.69,17A18.69,18.69,0,0,1,708,526.27Z"/><path class="cls-3" d="M274.46,260.75H109.4a18.72,18.72,0,0,1-18.58-20.43L101.12,128a18.69,18.69,0,0,1,18.58-17.1H284.76a18.72,18.72,0,0,1,18.58,20.43L293,243.65A18.69,18.69,0,0,1,274.46,260.75Z"/><path class="cls-1" d="M211.75,153.91H190.52a2.41,2.41,0,0,1-2.39-2.63l1.33-14.45a2.4,2.4,0,0,1,2.39-2.2h21.22a2.41,2.41,0,0,1,2.39,2.63l-1.32,14.45A2.41,2.41,0,0,1,211.75,153.91Z"/><path class="cls-1" d="M245.78,153.91H224.56a2.41,2.41,0,0,1-2.39-2.63l1.32-14.45a2.41,2.41,0,0,1,2.39-2.2h21.23a2.41,2.41,0,0,1,2.39,2.63l-1.33,14.45A2.4,2.4,0,0,1,245.78,153.91Z"/><path class="cls-2" d="M141.16,181.51H119.93a2.41,2.41,0,0,1-2.39-2.63l1.32-14.45a2.41,2.41,0,0,1,2.39-2.2h21.23a2.41,2.41,0,0,1,2.39,2.63l-1.32,14.45A2.41,2.41,0,0,1,141.16,181.51Z"/><path class="cls-1" d="M175.19,181.51H154a2.41,2.41,0,0,1-2.39-2.63l1.33-14.45a2.41,2.41,0,0,1,2.39-2.2h21.23a2.41,2.41,0,0,1,2.39,2.63l-1.33,14.45A2.41,2.41,0,0,1,175.19,181.51Z"/><path class="cls-2" d="M209.23,181.51H188a2.41,2.41,0,0,1-2.39-2.63l1.32-14.45a2.41,2.41,0,0,1,2.39-2.2h21.23a2.41,2.41,0,0,1,2.39,2.63l-1.32,14.45A2.41,2.41,0,0,1,209.23,181.51Z"/><path d="M209.23,183H188a3.87,3.87,0,0,1-2.87-1.27,4,4,0,0,1-1-3l1.33-14.45a3.89,3.89,0,0,1,3.88-3.57h21.23a3.91,3.91,0,0,1,2.87,1.27,4,4,0,0,1,1,3l-1.33,14.45A3.89,3.89,0,0,1,209.23,183Zm-19.91-19.28a.9.9,0,0,0-.89.84L187.1,179a.91.91,0,0,0,.24.69.89.89,0,0,0,.66.3h21.23a.9.9,0,0,0,.89-.84l1.33-14.45a.91.91,0,0,0-.24-.69.89.89,0,0,0-.66-.3Z"/><path class="cls-1" d="M243.26,181.51H222a2.41,2.41,0,0,1-2.39-2.63L221,164.43a2.4,2.4,0,0,1,2.39-2.2h21.23a2.41,2.41,0,0,1,2.39,2.63l-1.33,14.45A2.41,2.41,0,0,1,243.26,181.51Z"/><path class="cls-1" d="M138.63,209.11H117.41a2.41,2.41,0,0,1-2.39-2.63L116.34,192a2.41,2.41,0,0,1,2.39-2.2H140a2.41,2.41,0,0,1,2.39,2.63L141,206.91A2.4,2.4,0,0,1,138.63,209.11Z"/><path class="cls-1" d="M172.67,209.11H151.44a2.41,2.41,0,0,1-2.39-2.63L150.37,192a2.41,2.41,0,0,1,2.4-2.2H174a2.41,2.41,0,0,1,2.39,2.63l-1.32,14.45A2.41,2.41,0,0,1,172.67,209.11Z"/><path class="cls-1" d="M206.7,209.11H185.48a2.41,2.41,0,0,1-2.39-2.63L184.41,192a2.41,2.41,0,0,1,2.39-2.2H208a2.41,2.41,0,0,1,2.39,2.63l-1.33,14.45A2.4,2.4,0,0,1,206.7,209.11Z"/><path class="cls-1" d="M240.74,209.11H219.51a2.41,2.41,0,0,1-2.39-2.63L218.44,192a2.41,2.41,0,0,1,2.39-2.2h21.23a2.41,2.41,0,0,1,2.39,2.63l-1.32,14.45A2.41,2.41,0,0,1,240.74,209.11Z"/><path class="cls-2" d="M280,153.91H258.78a2.41,2.41,0,0,1-2.39-2.63l1.33-14.45a2.41,2.41,0,0,1,2.39-2.2h21.23a2.41,2.41,0,0,1,2.39,2.63l-1.33,14.45A2.4,2.4,0,0,1,280,153.91Z"/><path class="cls-2" d="M277.49,181.51H256.26a2.41,2.41,0,0,1-2.39-2.63l1.33-14.45a2.4,2.4,0,0,1,2.39-2.2h21.22a2.41,2.41,0,0,1,2.39,2.63l-1.32,14.45A2.41,2.41,0,0,1,277.49,181.51Z"/><path class="cls-2" d="M275,209.11H253.74a2.41,2.41,0,0,1-2.39-2.63L252.67,192a2.41,2.41,0,0,1,2.39-2.2h21.23a2.41,2.41,0,0,1,2.39,2.63l-1.32,14.45A2.41,2.41,0,0,1,275,209.11Z"/><path d="M275,210.61H253.74a3.87,3.87,0,0,1-2.87-1.27,4,4,0,0,1-1-3l1.33-14.45a3.89,3.89,0,0,1,3.88-3.57h21.23a3.87,3.87,0,0,1,2.87,1.27,4,4,0,0,1,1,3L278.85,207A3.89,3.89,0,0,1,275,210.61Zm-19.91-19.28a.89.89,0,0,0-.89.83l-1.33,14.45a.92.92,0,0,0,.24.7.89.89,0,0,0,.66.3H275a.9.9,0,0,0,.89-.84l1.33-14.45a1,1,0,0,0-.24-.7.93.93,0,0,0-.66-.29Z"/><path class="cls-1" d="M135.65,237.25H114.42a2.4,2.4,0,0,1-2.39-2.62l1.32-14.45a2.41,2.41,0,0,1,2.39-2.2H137a2.41,2.41,0,0,1,2.39,2.63L138,235.05A2.4,2.4,0,0,1,135.65,237.25Z"/><path class="cls-1" d="M169.68,237.25H148.45a2.41,2.41,0,0,1-2.39-2.62l1.33-14.45a2.41,2.41,0,0,1,2.39-2.2H171a2.41,2.41,0,0,1,2.39,2.63l-1.33,14.44A2.4,2.4,0,0,1,169.68,237.25Z"/><path class="cls-2" d="M203.72,237.25H182.49a2.4,2.4,0,0,1-2.39-2.62l1.32-14.45a2.41,2.41,0,0,1,2.39-2.2H205a2.41,2.41,0,0,1,2.39,2.63l-1.32,14.44A2.4,2.4,0,0,1,203.72,237.25Z"/><path class="cls-1" d="M237.75,237.25H216.52a2.41,2.41,0,0,1-2.39-2.62l1.33-14.45a2.41,2.41,0,0,1,2.39-2.2h21.23a2.41,2.41,0,0,1,2.39,2.63l-1.33,14.44A2.4,2.4,0,0,1,237.75,237.25Z"/><path class="cls-3" d="M726.67,260.75H336.16a18.73,18.73,0,0,1-18.59-20.43L327.87,128a18.69,18.69,0,0,1,18.58-17.1H737a18.73,18.73,0,0,1,18.59,20.43l-10.3,112.32A18.7,18.7,0,0,1,726.67,260.75Z"/><path class="cls-1" d="M487.31,152.93H720.15a3,3,0,0,0,2.89-2.6L724.41,136a1.91,1.91,0,0,0-2-2.19H489.59a3,3,0,0,0-2.88,2.61l-1.38,14.32A1.92,1.92,0,0,0,487.31,152.93Z"/><path class="cls-1" d="M593.51,180.29h124a3,3,0,0,0,2.88-2.61l1.38-14.32a1.92,1.92,0,0,0-2-2.18h-124a3,3,0,0,0-2.88,2.61l-1.38,14.32A1.92,1.92,0,0,0,593.51,180.29Z"/><path class="cls-1" d="M530,207.65H714.87a3,3,0,0,0,2.88-2.61l1.38-14.32a1.92,1.92,0,0,0-2-2.18H532.26a3,3,0,0,0-2.88,2.6L528,205.46A1.92,1.92,0,0,0,530,207.65Z"/><path class="cls-1" d="M353.89,185.82c-2.27,28.83,19.24,52.19,48,52.19s54-23.36,56.22-52.19-19.24-52.19-48-52.19S356.15,157,353.89,185.82Zm73.19,0a23.21,23.21,0,0,1-22.72,21.1A19.21,19.21,0,0,1,385,185.82a23.21,23.21,0,0,1,22.72-21.09A19.2,19.2,0,0,1,427.08,185.82Z"/><path class="cls-2" d="M355.59,176l30.61,4.11a23.53,23.53,0,0,1,13.67-13.93l-10.8-28.27A58.15,58.15,0,0,0,355.59,176Z"/><path class="cls-4" d="M399.87,166.2a21.79,21.79,0,0,1,7.8-1.47,20.76,20.76,0,0,1,4.44.49l4.51-31.16a51.58,51.58,0,0,0-6.51-.43,54.37,54.37,0,0,0-21.69,4.58Z"/><path class="cls-3" d="M480.38,438.71H89.86a18.73,18.73,0,0,1-18.59-20.43L81.57,306a18.7,18.7,0,0,1,18.58-17.11H490.67a18.73,18.73,0,0,1,18.59,20.43L499,421.6A18.71,18.71,0,0,1,480.38,438.71Z"/><path class="cls-1" d="M123.3,420.23H102.07a2.41,2.41,0,0,1-2.39-2.63l3.68-42.66a2.41,2.41,0,0,1,2.39-2.2H127a2.41,2.41,0,0,1,2.39,2.63L125.69,418A2.41,2.41,0,0,1,123.3,420.23Z"/><path class="cls-2" d="M157.34,420.23H136.12a2.41,2.41,0,0,1-2.39-2.63L139,358.3a2.4,2.4,0,0,1,2.39-2.2h21.23a2.41,2.41,0,0,1,2.39,2.63L159.73,418A2.4,2.4,0,0,1,157.34,420.23Z"/><path class="cls-2" d="M225.43,420.23H204.21a2.42,2.42,0,0,1-2.4-2.63l8.35-90.07a2.4,2.4,0,0,1,2.39-2.2h21.23a2.42,2.42,0,0,1,2.39,2.63L227.82,418A2.4,2.4,0,0,1,225.43,420.23Z"/><path class="cls-1" d="M259.48,420.23H238.25a2.41,2.41,0,0,1-2.39-2.63l7.39-77.46a2.41,2.41,0,0,1,2.39-2.2h21.23a2.41,2.41,0,0,1,2.39,2.63L261.87,418A2.41,2.41,0,0,1,259.48,420.23Z"/><path class="cls-4" d="M191.79,420.23H170.56a2.41,2.41,0,0,1-2.39-2.63l9.4-101.42A2.4,2.4,0,0,1,180,314h21.23a2.41,2.41,0,0,1,2.39,2.63L194.18,418A2.4,2.4,0,0,1,191.79,420.23Z"/><path class="cls-3" d="M294,420.23H272.79a2.41,2.41,0,0,1-2.39-2.63l1.86-21.43a2.4,2.4,0,0,1,2.39-2.2h21.23a2.41,2.41,0,0,1,2.39,2.63L296.4,418A2.4,2.4,0,0,1,294,420.23Z"/><path d="M294,421.73H272.79a3.91,3.91,0,0,1-3.89-4.26L270.77,396a3.88,3.88,0,0,1,3.88-3.57h21.23a3.87,3.87,0,0,1,2.87,1.27,4,4,0,0,1,1,3l-1.87,21.43A3.89,3.89,0,0,1,294,421.73Zm-19.36-26.26a.9.9,0,0,0-.89.83l-1.87,21.43a.88.88,0,0,0,.24.7.87.87,0,0,0,.66.3H294a.9.9,0,0,0,.9-.84l1.87-21.42a.93.93,0,0,0-.24-.71.89.89,0,0,0-.66-.29Z"/><path class="cls-1" d="M432.48,420.88H411.25a2.4,2.4,0,0,1-2.39-2.63l3.68-42.65a2.4,2.4,0,0,1,2.39-2.2h21.23a2.41,2.41,0,0,1,2.39,2.63l-3.68,42.65A2.4,2.4,0,0,1,432.48,420.88Z"/><path class="cls-1" d="M328.06,420.23H306.83a2.41,2.41,0,0,1-2.39-2.63l5.24-59.3a2.4,2.4,0,0,1,2.39-2.2h21.22a2.4,2.4,0,0,1,2.39,2.63L330.45,418A2.41,2.41,0,0,1,328.06,420.23Z"/><path class="cls-2" d="M396.8,420.72H375.57a2.41,2.41,0,0,1-2.39-2.63l5.24-59.3a2.4,2.4,0,0,1,2.39-2.2H402a2.41,2.41,0,0,1,2.39,2.63l-5.24,59.3A2.41,2.41,0,0,1,396.8,420.72Z"/><path class="cls-4" d="M362.51,420.23H341.28a2.41,2.41,0,0,1-2.39-2.63l7.33-78.45a2.4,2.4,0,0,1,2.39-2.2h21.23a2.4,2.4,0,0,1,2.39,2.62L364.9,418A2.41,2.41,0,0,1,362.51,420.23Z"/><path class="cls-4" d="M586.31,787.54c53.91-24.85,103.2-60.62,143.2-106.18-54.52-.45-96.64,29.21-96.64,29.21Z"/><path class="cls-2" d="M386.86,575.66c-.39-6.47-24.13-7.53-24.84-14-.64-5.93,22.44-23.47,21.52-29.43-5.49-35.61-17.47-64.21-34.66-99.25a4.22,4.22,0,0,0-6.71-1.21c-13.67,13.08-57.91,59.35-91.29,139-2,4.86,16.05,31.57,14.11,36.63s-25.31-4.86-27.16.48c-17.85,51.73-28.41,108-24.24,175.55,38.73,19,80,32.67,121.6,39.56C366.14,754.13,392.58,670.35,386.86,575.66Z"/><path class="cls-1" d="M310.52,469a1.51,1.51,0,0,1-.92-.32,1.5,1.5,0,0,1-.27-2.1c6.54-8.45,13.23-16.43,19.91-23.71a1.5,1.5,0,0,1,2.21,2c-6.62,7.21-13.26,15.13-19.75,23.51A1.46,1.46,0,0,1,310.52,469Z"/><path class="cls-1" d="M364.87,469.23a1.48,1.48,0,0,1-1.38-.92C360.42,461,356.84,453,352.54,444a1.5,1.5,0,1,1,2.71-1.29c4.32,9.07,7.92,17.08,11,24.49a1.48,1.48,0,0,1-1.38,2.07Z"/><path class="cls-1" d="M273.61,787.71a1.59,1.59,0,0,1-.43-.06,1.5,1.5,0,0,1-1-1.87c9.15-30.35,17.61-61.34,25.14-92.12a1.5,1.5,0,1,1,2.91.72c-7.54,30.82-16,61.86-25.17,92.26A1.51,1.51,0,0,1,273.61,787.71Z"/><path class="cls-1" d="M309,651.39a1.22,1.22,0,0,1-.32,0,1.48,1.48,0,0,1-1.14-1.78C318.91,597.37,328.1,544,334.82,491l3.08-24.28a1.5,1.5,0,1,1,3,.38l-3.07,24.28c-6.73,53.08-15.94,106.51-27.35,158.79A1.51,1.51,0,0,1,309,651.39Z"/><path class="cls-4" d="M229.54,790.85c8.12-42.72,24.4-175.76-56.94-292.66-3-4.33-20.24,6.86-23.31,2.49-3.91-5.58,6.46-26.81,2.1-32.2a293.22,293.22,0,0,0-58.64-55.05S22.1,592,193.78,773Q211.27,782.7,229.54,790.85Z"/><path class="cls-2" d="M44.51,636.83c41.95,65.77,109.08,120.1,184.61,153.83C217.25,745.93,176,645.13,44.51,636.83Z"/><path class="cls-2" d="M614.52,773.32c65.33-84.55,85.54-174.92,85.54-174.92a463.42,463.42,0,0,0-77.94,24.82c-3.25,1.35-7.25,26.91-10.44,28.31-3.56,1.58-15.08-17-18.57-15.41-121.65,57-194,149.8-221.76,191.15C454.38,833.43,540,814.32,614.52,773.32Z"/><path class="cls-1" d="M530.85,760a1.5,1.5,0,0,1-1-2.61L679.78,622.21a1.5,1.5,0,1,1,2,2.23L531.86,759.56A1.51,1.51,0,0,1,530.85,760Z"/><path d="M107.8,742.74a1.51,1.51,0,0,1-1-.35C77.06,717.58,51.6,690,31.19,660.47a1.5,1.5,0,1,1,2.47-1.7c20.26,29.32,45.52,56.68,75.1,81.31a1.51,1.51,0,0,1-1,2.66Z"/><path d="M175,789.46a1.59,1.59,0,0,1-.75-.2c-12.25-7-24.3-14.7-35.8-22.74a1.5,1.5,0,1,1,1.71-2.46c11.44,8,23.41,15.59,35.59,22.6a1.5,1.5,0,0,1-.75,2.8Z"/><path d="M769.05,743.29a10.1,10.1,0,1,1,10-10.09A10.08,10.08,0,0,1,769.05,743.29Zm0-17.19a7.1,7.1,0,1,0,7,7.1A7.08,7.08,0,0,0,769.05,726.1Z"/><path d="M145.94,50.86a9.34,9.34,0,0,1,0-18.68,1.5,1.5,0,0,1,0,3,6.34,6.34,0,1,0,6.3,6.34,1.5,1.5,0,0,1,3,0A9.33,9.33,0,0,1,145.94,50.86Z"/><path d="M186.66,25.31a1.48,1.48,0,0,1-1.07-.45l-4.43-4.48a1.5,1.5,0,1,1,2.13-2.11l4.43,4.48a1.51,1.51,0,0,1-1.06,2.56Z"/><path d="M202.17,41a1.5,1.5,0,0,1-1.07-.45l-4.43-4.48A1.5,1.5,0,1,1,198.8,34l4.44,4.48a1.52,1.52,0,0,1,0,2.13A1.56,1.56,0,0,1,202.17,41Z"/><path d="M182.22,41a1.52,1.52,0,0,1-1.05-.43,1.5,1.5,0,0,1,0-2.13L185.59,34a1.5,1.5,0,1,1,2.13,2.11l-4.43,4.48A1.48,1.48,0,0,1,182.22,41Z"/><path d="M197.74,25.31a1.53,1.53,0,0,1-1.06-.44,1.5,1.5,0,0,1,0-2.12l4.43-4.48a1.5,1.5,0,1,1,2.14,2.11l-4.44,4.48A1.48,1.48,0,0,1,197.74,25.31Z"/><path d="M725.71,778.91h0l-6.29,0a1.5,1.5,0,0,1,0-3h0l6.29,0a1.5,1.5,0,1,1,0,3Z"/><path d="M747.71,779h0l-6.29,0a1.51,1.51,0,0,1-1.5-1.51,1.48,1.48,0,0,1,1.51-1.49l6.29,0a1.5,1.5,0,0,1,0,3Z"/><path d="M733.61,793.17a1.5,1.5,0,0,1-1.5-1.5l0-6.32a1.5,1.5,0,0,1,1.49-1.51h0a1.51,1.51,0,0,1,1.5,1.5l0,6.33a1.5,1.5,0,0,1-1.5,1.5Z"/><path d="M733.54,771a1.5,1.5,0,0,1-1.5-1.5l0-6.33a1.5,1.5,0,0,1,1.5-1.5h0a1.5,1.5,0,0,1,1.5,1.5l0,6.32a1.5,1.5,0,0,1-1.49,1.51Z"/><path class="cls-3" d="M651.74,687.42c.7,1.11,27.57,39.76,27.57,39.76s-.68,9.84-7.64,11.76l-32-34.78Z"/><path d="M671.67,740.44a1.49,1.49,0,0,1-1.11-.49l-31.95-34.78a1.49,1.49,0,0,1-.11-1.89l12-16.73a1.49,1.49,0,0,1,2.48.07c.57.88,18.26,26.35,27.54,39.7a1.5,1.5,0,0,1,.27,1c0,.44-.85,10.93-8.74,13.11A1.9,1.9,0,0,1,671.67,740.44Zm-30-36.4,30.47,33.16c4.34-1.85,5.42-7.85,5.65-9.63-2.78-4-21.07-30.31-26-37.54Z"/><path class="cls-3" d="M694,734s-2.29,30.51-15.69,46.57-34.89,10.93-34.89,10.93-1.63-13.59,1.16-17.12,18.2-22.41,18.16-39.38l8.19-11.22,4.83,6.3,2.07-10.28Z"/><path d="M651.54,793.78a40,40,0,0,1-8.52-.85,1.52,1.52,0,0,1-1.14-1.28c-.28-2.37-1.55-14.4,1.47-18.23l.3-.38c14.53-18.3,17.56-30.8,17.54-38.06a1.5,1.5,0,0,1,.29-.89l8.19-11.22a1.52,1.52,0,0,1,1.19-.62,1.66,1.66,0,0,1,1.21.59l2.82,3.68,1.42-7a1.52,1.52,0,0,1,1-1.12,1.48,1.48,0,0,1,1.47.29l16.17,14.2a1.49,1.49,0,0,1,.5,1.24c-.09,1.27-2.48,31.18-16,47.42C670.86,791.76,659.32,793.78,651.54,793.78Zm-6.8-3.58c4.32.73,21.37,2.58,32.37-10.62,11.8-14.15,14.82-40.27,15.28-45l-13.65-12-1.55,7.74a1.5,1.5,0,0,1-1.14,1.16,1.49,1.49,0,0,1-1.53-.55l-3.61-4.7-6.72,9.21c-.12,7.8-3.44,20.85-18.19,39.44l-.29.37C644.16,777.24,644.2,784.83,644.74,790.2Z"/><path class="cls-3" d="M688.54,735.14s-3.47,50.7-40.87,49.6Z"/><path d="M648.85,786.26c-.41,0-.81,0-1.23,0a1.5,1.5,0,0,1,.09-3c35.51,1,39.3-47.71,39.34-48.2a1.5,1.5,0,1,1,3,.2C690,735.76,686.1,786.26,648.85,786.26Z"/><path d="M591.58,417.65S560,511.23,559.81,572.86s86.51,143.36,86.51,143.36l17.91-15.63s-31.89-34-38-80S638.67,487.7,638.67,487.7l6.91-61.35Z"/><path class="cls-3" d="M638.19,720.59c.15,1.65-1.55,24.82-8.69,39.36,0,0,3.3,10.67,13.4,8.76,0,0,15.51-29.71,18.76-48.94Z"/><path d="M640.56,770.43c-7.35,0-11.34-6.32-12.49-10a1.5,1.5,0,0,1,.09-1.1c7.14-14.56,8.63-37.31,8.53-38.56a1.52,1.52,0,0,1,1.44-1.64l23.48-.82a1.52,1.52,0,0,1,1.18.51,1.47,1.47,0,0,1,.35,1.24c-3.26,19.24-18.28,48.16-18.91,49.38a1.49,1.49,0,0,1-1.05.78A14.39,14.39,0,0,1,640.56,770.43ZM631.13,760c.74,1.91,3.76,8.2,10.78,7.31,2.21-4.34,14.47-28.86,17.94-46l-20.19.71C639.38,727.89,637.26,747.11,631.13,760Z"/><path class="cls-3" d="M648.52,757.59s2.58,30.39-1.22,39c0,0-28.74,14.87-62.11,14.83a4.29,4.29,0,0,1-4.29-4.31,33.28,33.28,0,0,1,10.68-24.55c13.27-12.08,41.76-31.91,41.76-31.91l5.74,7-2.4,11.07Z"/><path d="M585.33,812.91h-.14a5.8,5.8,0,0,1-5.79-5.82,34.83,34.83,0,0,1,11.17-25.65c13.19-12,41.63-31.83,41.91-32a1.5,1.5,0,0,1,2,.28l5.74,7a1.52,1.52,0,0,1,.31,1.28l-1.38,6.35,8.33-7.81a1.5,1.5,0,0,1,2.52,1c.1,1.25,2.56,30.86-1.35,39.72a1.4,1.4,0,0,1-.68.72C647.7,798.06,618.62,812.91,585.33,812.91Zm47.73-60.25c-5.43,3.82-28.92,20.49-40.47,31a31.87,31.87,0,0,0-10.19,23.45,2.76,2.76,0,0,0,.81,2,2.87,2.87,0,0,0,2.12.83c30.23,0,56.9-12.51,60.8-14.42,2.65-7,1.64-26.93,1.13-34.65l-9.56,9a1.5,1.5,0,0,1-2.49-1.41L637.46,758Z"/><path class="cls-3" d="M645.07,787.6S617.74,805,585,803Z"/><path d="M590.22,804.63c-1.75,0-3.51,0-5.28-.16a1.5,1.5,0,0,1-1.41-1.58,1.51,1.51,0,0,1,1.59-1.41c31.86,1.93,58.88-15,59.15-15.15a1.5,1.5,0,1,1,1.6,2.53C645.61,789,620.68,804.63,590.22,804.63Z"/><path d="M688.6,417.65s20,135.06-26.94,313.61l-28.32-4.08S648.62,571.09,612,488.57L603.86,414Z"/><path class="cls-3" d="M629.78,571.17h0a1.5,1.5,0,0,1-1.49-1.51c.11-20.27-5.59-59-13.71-70.92a1.52,1.52,0,0,1,.4-2.09,1.5,1.5,0,0,1,2.08.4c8.73,12.83,14.34,52.21,14.23,72.63A1.51,1.51,0,0,1,629.78,571.17Z"/><path class="cls-3" d="M635.34,688.92h-.08a1.51,1.51,0,0,1-1.42-1.58c1-18.84-2-49.93-2-50.25a1.5,1.5,0,0,1,3-.29c0,.32,3.07,31.64,2,50.71A1.5,1.5,0,0,1,635.34,688.92Z"/><path class="cls-3" d="M411.88,134.63l27,9.79s14.69,4.25,21.73,18.44S505,253.08,604,246.29l-18.73,55.56s-107.59-5.91-130.87-116.59c-1.23-5.88-6.54-10.1-11.83-12.9-5-2.64-10.39-7.43-11.08-15.9-.87-10.72-8.59-8.86-11.95-10.74S410.78,141.77,411.88,134.63Z"/><path d="M585.24,303.35h-.08c-.27,0-27.56-1.67-57.31-16.95-27.48-14.12-62.8-43.07-74.94-100.82-1.18-5.61-6.67-9.56-11.07-11.89-5-2.64-11.12-7.76-11.87-17.1-.56-6.93-4-7.66-7.62-8.43a12.94,12.94,0,0,1-3.58-1.12l-1-.52c-3.41-1.83-8.57-4.58-7.42-12.1a1.5,1.5,0,0,1,.72-1.07,1.52,1.52,0,0,1,1.28-.12l27,9.79c.53.15,15.32,4.57,22.56,19.19l.06.12c16.5,33.31,56.87,88.3,141.85,82.47a1.5,1.5,0,0,1,1.52,2l-18.73,55.55A1.5,1.5,0,0,1,585.24,303.35Zm-172-166.63c.13,4,3.1,5.6,6,7.14l1,.55a10.85,10.85,0,0,0,2.74.81c3.68.78,9.24,2,10,11.12.52,6.41,4,11.35,10.29,14.69,7.11,3.77,11.47,8.58,12.59,13.92,11.89,56.54,46.41,84.89,73.28,98.72a158.86,158.86,0,0,0,55.07,16.59l17.65-52.33c-3.52.2-7,.3-10.35.3-78.17,0-116.16-52.29-132.16-84.58l-.06-.12c-6.64-13.4-20.66-17.63-20.8-17.67Z"/><path d="M446.52,172.22a1.65,1.65,0,0,1-.68-.16c-7.35-3.7-7.85-8.76-8.18-12.11a5.43,5.43,0,0,0-.59-2.59c-2.62-2.45-4.17-7.63-4.34-8.21a1.5,1.5,0,0,1,2.24-1.69L453,158.73a1.5,1.5,0,1,1-1.59,2.55l-14.21-8.87a10.19,10.19,0,0,0,1.88,2.76c1.19,1.12,1.35,2.76,1.52,4.49.3,3,.67,6.76,6.55,9.72a1.5,1.5,0,0,1,.67,2A1.53,1.53,0,0,1,446.52,172.22Z"/><path class="cls-4" d="M562.21,475a249.76,249.76,0,0,1,44.23,0c31.85,2.86,50.37,10.84,62.62.14,7.16-6.26,9.3-16.41,13.19-15.58s2.67,11.25,10.4,17.22A18.9,18.9,0,0,0,703,480.46a151.6,151.6,0,0,0,.9-54.47c-4.07-23.9-12.46-36.46-17.14-49.93-7.35-21.14-8.87-54,18-104.88-7.42-5.12-56.17-22.89-95.21-27.73A17.67,17.67,0,0,0,592,252.31c-10.46,18.51-19.07,35.11-20.37,47.62C568.24,332.26,564.07,394.3,562.21,475Z"/><path d="M652.09,482.05c-6.2,0-13.3-1.1-21.46-2.36-7.12-1.11-15.18-2.36-24.33-3.18a250.14,250.14,0,0,0-44,0,1.49,1.49,0,0,1-1.15-.4,1.5,1.5,0,0,1-.48-1.13c1.85-80.44,6.08-143.25,9.42-175.21,1.26-12.07,8.8-27.39,20.55-48.2a19.1,19.1,0,0,1,19-9.6c38.22,4.73,87.62,22.28,95.89,28a1.51,1.51,0,0,1,.47,1.94c-21.58,40.9-27.6,75.78-17.9,103.68,1.42,4.07,3.19,8.09,5.07,12.35,4.35,9.87,9.29,21.06,12.14,37.83a152.62,152.62,0,0,1-.91,55,1.48,1.48,0,0,1-1.57,1.21,20.21,20.21,0,0,1-11.18-4c-4.68-3.62-6.32-8.71-7.52-12.44-.71-2.22-1.39-4.31-2.27-4.5s-2.66,2.57-4.12,5c-1.89,3.17-4.23,7.12-7.78,10.22C665.11,480.6,659.2,482.05,652.09,482.05Zm-67.56-9.5c7.44,0,14.8.32,22,1,9.25.83,17.36,2.09,24.52,3.2,17.34,2.69,28.8,4.46,37-2.69,3.19-2.78,5.39-6.5,7.17-9.49,2.35-4,4.21-7.09,7.32-6.42,2.59.54,3.48,3.31,4.51,6.52,1.14,3.53,2.55,7.93,6.49,11a16.8,16.8,0,0,0,8.23,3.22,149.46,149.46,0,0,0,.65-52.6c-2.8-16.4-7.65-27.41-11.93-37.12-1.91-4.31-3.71-8.39-5.16-12.57-9.89-28.44-4-63.7,17.43-104.83-10-5.61-55.41-22.07-93.43-26.78a16.14,16.14,0,0,0-16.06,8.11c-9.48,16.78-18.84,34.23-20.18,47-3.31,31.68-7.49,93.75-9.36,173.3C570.71,472.82,577.65,472.55,584.53,472.55Z"/><path class="cls-3" d="M661.6,409.65l21.66.48c-13.42-1.75-14.44-8.91-14.44-8.91L695,407.71l9.09,14.74,7.95-7.26A55.77,55.77,0,0,0,729.1,385.8a51.51,51.51,0,0,0-1.42-27.65c-7.28-21.26-29.55-30.64-40.08-34a8.1,8.1,0,0,1-5.66-7.93c1-35.86,22.81-45.07,22.81-45.07s50.64,18,61.89,71.56c.12.56.23,1.12.34,1.67,7.08,36.63-12.68,73.14-46.75,87.88-7.17,3.1-14.21,5.68-16.9,5.2a24.1,24.1,0,0,1-13.85-8.16,37.79,37.79,0,0,0-7.33-6.09l-4.35-1.88c-4.36-1.88-13.36-3.91-13.36-3.91l13.9-2.39C664.83,415.79,661.6,409.65,661.6,409.65Z"/><path d="M704.08,439.05a5.65,5.65,0,0,1-1-.08,25.94,25.94,0,0,1-14.72-8.65,36.42,36.42,0,0,0-6.9-5.75l-4.25-1.83c-4.18-1.8-13-3.81-13.09-3.83a1.5,1.5,0,0,1,.07-2.94l3.33-.57c-5.44-1.77-7.14-4.86-7.24-5a1.5,1.5,0,0,1,.05-1.49,1.47,1.47,0,0,1,1.31-.71l11.27.25c-4.92-3-5.53-6.74-5.56-7a1.5,1.5,0,0,1,1.85-1.67l26.15,6.49a1.56,1.56,0,0,1,.92.67l8.14,13.2,6.61-6a53.92,53.92,0,0,0,16.62-28.59,49.65,49.65,0,0,0-1.37-26.86c-7.16-20.9-29.74-30.06-39.11-33a9.63,9.63,0,0,1-6.71-9.4c1-36.41,22.8-46,23.73-46.41a1.47,1.47,0,0,1,1.09,0c.51.18,51.55,18.93,62.85,72.67.12.56.23,1.12.34,1.68a80.62,80.62,0,0,1-8.09,53.15,82,82,0,0,1-39.54,36.4C710.44,438.16,706.18,439.05,704.08,439.05Zm-32.44-21.32a57.79,57.79,0,0,1,6.75,2.26l4.35,1.88.2.1a38.94,38.94,0,0,1,7.67,6.38,23,23,0,0,0,13,7.67c.91.16,4.29,0,16-5.11,33.44-14.46,52.73-50.72,45.88-86.22l-.33-1.64c-10.31-49-54.76-68-60.35-70.24-3.22,1.68-20.52,12.16-21.39,43.49a6.62,6.62,0,0,0,4.62,6.45c9.8,3.1,33.44,12.71,41,34.91a52.65,52.65,0,0,1,1.46,28.46A56.9,56.9,0,0,1,713,416.3l-7.95,7.26a1.45,1.45,0,0,1-1.21.37,1.46,1.46,0,0,1-1.07-.69L694,409l-22.43-5.57c1.53,1.87,4.82,4.27,11.86,5.19a1.5,1.5,0,0,1-.23,3l-17.69-.39c2.24,1.33,6.17,2.68,12.73,2.32a1.51,1.51,0,0,1,1.57,1.34,1.49,1.49,0,0,1-1.24,1.64Z"/><path d="M649.75,164.67c-10.41,3.87-8.35,12.34-25.45,28.52-9.75,9.23-14.44,10.29-16.5,13.7a7.8,7.8,0,0,0-.93,2.4c-2.14,8.45,7,19.44,15.85,24.83,16.47,10,29.17-1.15,39.45,8.67,7.44,7.11,4,16,11.23,19.41s17.57-2.48,23.1-7.91c12-11.76,10.51-30.17,9.73-38.66a63.79,63.79,0,0,0-8.07-26.07,51.53,51.53,0,0,0-11.33-14C685.56,174.51,666.23,158.55,649.75,164.67Z"/><path class="cls-3" d="M669.94,255.22c-2.92-3.07-4.3-4.68-4.18-8.93l1-32.22s6.67.13,8.8-7.94c1.65-6.27-5.47-6.24-5.47-6.24l1.41-11.78c-5.16,2.08-4.26,9.7-9,6.75l-20.83-13s-5.47-1.7-6.73,15.86c-.62,6-5,7.74-6.3,9.19a2.26,2.26,0,0,0,.41,3.4l1.6,1.07c3.09,16,6.39,18.95,12,18.27l-.18,6.5a10.62,10.62,0,0,1-12.09,10.27l-17.45-2.48s13,24.9,75,20.43Z"/><path d="M673.48,266.39c-49.84,0-61.36-20.81-61.87-21.77a1.5,1.5,0,0,1,1.54-2.18l17.45,2.48A9.13,9.13,0,0,0,641,236.09l.14-4.87c-6-.11-9.07-5.27-11.77-19l-1.08-.72a3.76,3.76,0,0,1-1.64-2.68,3.7,3.7,0,0,1,1-3,10.77,10.77,0,0,1,1.43-1.22c1.71-1.3,4.06-3.08,4.47-7.11.64-8.88,2.47-14.43,5.42-16.45a3.86,3.86,0,0,1,3.26-.68,1.33,1.33,0,0,1,.34.16l20.83,13a1.92,1.92,0,0,0,1.15.44c.38-.1,1-1.2,1.41-2,1-1.76,2.28-4.18,5.07-5.3a1.52,1.52,0,0,1,1.47.2,1.51,1.51,0,0,1,.58,1.37l-1.23,10.26a7.18,7.18,0,0,1,4.45,2.43,6.09,6.09,0,0,1,.8,5.53c-1.62,6.13-5.87,8.4-8.79,8.93l-1,30.9c-.1,3.51.85,4.76,3.59,7.66l17.73,9a1.5,1.5,0,0,1-.57,2.83C682.84,266.22,678,266.39,673.48,266.39Zm-57.14-20.47c5.36,5.9,22.44,19.26,65.95,17.26l-13-6.62a1.39,1.39,0,0,1-.41-.31c-3.11-3.27-4.72-5.21-4.59-10l1-32.23a1.51,1.51,0,0,1,1.5-1.45h0c.29,0,5.53-.1,7.31-6.82a3.35,3.35,0,0,0-.27-2.93c-.9-1.17-3-1.43-3.75-1.43a1.57,1.57,0,0,1-1.12-.51,1.48,1.48,0,0,1-.36-1.17l1-8.05a20.12,20.12,0,0,0-1.05,1.8c-.82,1.49-1.66,3-3.29,3.46a4.4,4.4,0,0,1-3.5-.79l-20.54-12.84a1.88,1.88,0,0,0-.77.41c-.94.75-3.21,3.65-4,14.11-.55,5.36-3.74,7.79-5.64,9.23a9.65,9.65,0,0,0-1,.86.75.75,0,0,0-.2.6.77.77,0,0,0,.33.54l1.6,1.07a1.45,1.45,0,0,1,.64,1c3.21,16.59,6.43,17.55,10.31,17.07a1.5,1.5,0,0,1,1.68,1.53l-.18,6.5a12.12,12.12,0,0,1-13.8,11.72Z"/><path d="M642.66,231.13a1.5,1.5,0,0,1-.06-3c10.26-.4,15.4-5.33,15.46-5.38a1.5,1.5,0,0,1,2.11,2.13c-.24.24-5.95,5.8-17.45,6.25Z"/><path d="M671.73,170.94c.67-.49-2.76-22,13.38-22.44s19.94,30.31,4.16,34.29S671.73,170.94,671.73,170.94Z"/><path d="M644.71,210.05a6.8,6.8,0,0,1-2.09-.32,7.08,7.08,0,0,1-1.19-13,7,7,0,0,1,5.36-.49,7.08,7.08,0,0,1,1.18,13A7,7,0,0,1,644.71,210.05Zm0-11.14a4,4,0,0,0-3.85,2.87,4.07,4.07,0,0,0,2.66,5.09,4,4,0,0,0,3.06-.28,4.08,4.08,0,0,0-.68-7.49A3.75,3.75,0,0,0,644.7,198.91Zm-5.29,2.42h0Z"/><path class="cls-3" d="M631.71,204.91a1.49,1.49,0,0,1-1.26-.68,7.09,7.09,0,0,1,3.22-10.39,1.5,1.5,0,0,1,1.15,2.77,4.08,4.08,0,0,0-1.85,6,1.49,1.49,0,0,1-.45,2.07A1.42,1.42,0,0,1,631.71,204.91Z"/><path d="M650.42,204.91a1.5,1.5,0,0,1-.3-3l20.52-4.12a1.5,1.5,0,1,1,.59,2.94l-20.52,4.12Z"/><path d="M639.27,202.85a1.5,1.5,0,0,1-1.44-1.07,3,3,0,0,0-1.19-1.62,1.52,1.52,0,0,0-1.29,0,1.5,1.5,0,0,1-1.05-2.82,4.52,4.52,0,0,1,3.7.11,5.91,5.91,0,0,1,2.71,3.44,1.5,1.5,0,0,1-1,1.86A1.52,1.52,0,0,1,639.27,202.85Z"/><path d="M434.45,666.22a10.05,10.05,0,0,1-9.27-6.22,10.11,10.11,0,0,1,5.4-13.19,10,10,0,0,1,13.13,5.43,10.12,10.12,0,0,1-5.4,13.2A10,10,0,0,1,434.45,666.22Zm0-17.2a7.11,7.11,0,0,0-2.66,13.67,7,7,0,0,0,5.37,0,7.11,7.11,0,0,0,3.79-9.28,7.05,7.05,0,0,0-6.5-4.37Z"/><path d="M401.61,694.09a7.06,7.06,0,0,1-2.74-.55,7.17,7.17,0,0,1-3.94-3.93,7.29,7.29,0,0,1,3.89-9.51,7.23,7.23,0,0,1,9.47,3.91,7.29,7.29,0,0,1-3.89,9.51A7.14,7.14,0,0,1,401.61,694.09Zm0-11.56a4.24,4.24,0,0,0-1.63.33,4.29,4.29,0,0,0,0,7.91,4.21,4.21,0,0,0,3.23,0,4.29,4.29,0,0,0,0-7.91A4.23,4.23,0,0,0,401.61,682.53Z"/></g></g></svg>